<?xml version="1.0" encoding="UTF-8" standalone="no"?>
<!DOCTYPE svg PUBLIC "-//W3C//DTD SVG 1.1//EN" "http://www.w3.org/Graphics/SVG/1.1/DTD/svg11.dtd">
<svg xmlns="http://www.w3.org/2000/svg" version="1.1" viewBox="0.00 0.00 786.00 317.00">
<path fill="#1f292b" d="
  M 230.39 157.86
  L 212.00 170.21
  A 1.42 1.37 28.2 0 1 211.15 170.45
  L 165.31 168.78
  A 0.29 0.29 0.0 0 1 165.12 168.29
  Q 177.86 155.96 190.52 143.47
  Q 192.64 141.37 195.36 140.10
  Q 203.70 136.21 211.89 132.23
  A 0.21 0.21 0.0 0 0 211.80 131.83
  Q 195.20 131.80 178.50 132.10
  Q 178.20 132.11 178.03 131.90
  A 0.44 0.44 0.0 0 1 178.22 131.21
  L 218.77 116.40
  Q 219.16 116.26 219.55 116.40
  L 235.16 121.92
  Q 235.70 122.11 236.24 121.94
  L 258.24 114.82
  Q 258.71 114.67 258.81 115.15
  Q 260.62 124.18 260.71 133.24
  Q 260.86 148.30 260.38 152.25
  C 259.58 158.79 255.19 164.34 249.90 170.61
  Q 249.45 171.14 250.14 171.06
  C 264.85 169.43 277.24 157.31 284.10 144.96
  Q 284.33 144.54 284.79 144.68
  L 305.42 151.01
  Q 306.00 151.19 306.38 150.71
  L 327.60 124.07
  Q 327.98 123.60 327.53 123.20
  L 300.17 98.38
  A 0.31 0.31 0.0 0 0 299.69 98.76
  L 312.22 121.94
  A 0.86 0.85 51.5 0 1 312.11 122.92
  L 297.79 139.08
  Q 297.47 139.45 297.02 139.26
  L 275.54 130.34
  A 0.53 0.52 60.2 0 1 275.81 129.33
  L 294.08 131.96
  A 0.58 0.57 4.9 0 0 294.74 131.41
  L 295.04 123.26
  A 1.23 1.22 26.9 0 0 294.77 122.44
  Q 283.77 108.30 272.89 94.11
  C 270.13 90.51 267.51 88.84 262.81 87.87
  Q 241.45 83.47 220.08 79.21
  Q 219.58 79.11 219.95 78.76
  L 284.73 18.68
  Q 285.14 18.30 285.69 18.19
  L 323.48 10.78
  A 0.46 0.46 0.0 0 1 323.83 11.61
  L 317.32 16.13
  A 3.80 3.76 80.8 0 0 315.84 18.21
  L 305.07 56.25
  A 3.90 3.87 75.8 0 1 304.06 57.96
  L 281.59 80.26
  A 0.37 0.37 0.0 0 0 281.99 80.86
  L 301.51 72.86
  Q 302.04 72.64 302.39 72.18
  L 348.97 10.18
  A 0.98 0.97 -69.7 0 1 349.78 9.80
  L 378.28 10.53
  A 0.85 0.84 78.3 0 1 379.03 11.03
  Q 382.89 19.84 388.89 27.36
  Q 389.34 27.93 389.89 27.44
  L 397.01 21.18
  A 5.39 5.38 51.7 0 1 404.97 22.13
  L 410.02 29.30
  Q 410.33 29.74 410.87 29.74
  L 499.45 29.79
  A 1.29 1.28 73.6 0 1 500.53 30.38
  L 512.25 48.42
  Q 512.75 49.20 513.10 48.34
  L 520.33 30.48
  Q 520.53 30.01 521.04 30.01
  L 600.92 29.73
  A 0.81 0.80 75.7 0 1 601.63 30.16
  L 606.94 40.25
  Q 607.35 41.04 607.73 40.23
  L 612.49 30.14
  Q 612.67 29.75 613.09 29.75
  L 701.99 29.76
  A 0.27 0.27 0.0 0 1 702.10 30.28
  Q 701.11 30.71 700.07 31.32
  Q 613.50 82.31 526.93 133.32
  Q 526.47 133.58 526.12 133.18
  L 517.91 123.74
  A 0.28 0.28 0.0 0 0 517.42 123.91
  L 516.71 138.98
  Q 516.68 139.45 516.28 139.69
  L 362.78 230.42
  Q 362.23 230.75 361.64 230.51
  Q 288.29 201.54 214.35 174.13
  A 0.37 0.36 -56.6 0 1 214.23 173.52
  L 230.70 158.26
  A 0.26 0.25 -83.0 0 0 230.39 157.86
  Z
  M 366.27 22.47
  L 379.49 28.41
  A 0.30 0.30 0.0 0 0 379.84 27.94
  L 370.73 17.33
  Q 370.39 16.93 369.86 16.99
  L 358.92 18.28
  A 1.16 1.11 -70.8 0 0 358.25 18.62
  C 351.13 26.09 343.45 33.48 337.88 42.18
  Q 327.97 57.67 319.27 73.83
  A 0.08 0.08 0.0 0 0 319.39 73.93
  C 324.54 70.21 329.04 66.78 333.12 61.61
  Q 348.79 41.73 365.40 22.66
  Q 365.76 22.24 366.27 22.47
  Z
  M 397.76 37.23
  A 0.31 0.31 0.0 0 0 398.29 36.93
  L 396.73 30.97
  A 0.31 0.31 0.0 0 1 397.22 30.65
  L 405.98 37.71
  A 0.31 0.31 0.0 0 0 406.45 37.33
  L 399.85 24.88
  A 0.31 0.31 0.0 0 0 399.38 24.79
  L 392.05 30.91
  A 0.31 0.31 0.0 0 0 392.02 31.37
  L 397.76 37.23
  Z
  M 405.63 169.67
  Q 407.64 169.44 405.84 170.35
  L 376.47 185.23
  Q 375.95 185.49 375.38 185.32
  L 335.97 173.60
  A 0.41 0.41 0.0 0 0 335.45 174.03
  L 338.09 200.15
  Q 338.15 200.76 337.54 200.79
  L 321.26 201.68
  A 0.26 0.25 -25.5 0 0 321.10 202.12
  C 325.13 205.70 329.45 210.21 334.56 212.15
  Q 348.02 217.24 361.61 222.24
  Q 362.11 222.42 362.40 221.97
  Q 365.45 217.15 368.27 212.13
  C 371.10 207.08 378.04 206.56 381.27 201.45
  Q 386.02 193.91 390.54 186.19
  A 1.84 1.84 0.0 0 1 391.23 185.50
  Q 403.92 178.33 416.62 171.20
  Q 419.48 169.60 422.76 168.90
  Q 437.40 165.80 451.92 161.93
  Q 452.50 161.78 452.29 161.22
  L 442.93 135.85
  Q 442.74 135.35 443.07 134.94
  L 443.65 134.21
  Q 443.99 133.78 443.73 133.30
  L 438.81 124.43
  A 0.90 0.90 0.0 0 0 437.64 124.05
  C 433.58 125.97 430.01 127.10 425.27 127.64
  Q 420.39 128.19 415.47 128.87
  A 0.37 0.37 0.0 0 1 415.27 128.16
  L 417.15 127.37
  Q 417.63 127.16 418.00 126.78
  C 422.84 121.80 429.81 114.05 436.39 117.58
  Q 436.88 117.84 437.24 117.40
  L 441.94 111.52
  Q 442.29 111.07 441.92 110.64
  L 440.19 108.61
  A 0.79 0.79 0.0 0 1 440.01 108.08
  L 440.77 94.37
  A 0.98 0.98 0.0 0 1 441.21 93.61
  L 446.50 90.25
  A 0.51 0.51 0.0 0 0 446.56 89.44
  C 440.59 84.28 434.30 79.34 431.05 74.35
  Q 430.83 74.02 430.92 73.62
  L 431.66 70.45
  Q 431.80 69.82 431.30 69.40
  L 388.97 34.27
  Q 388.48 33.86 387.96 34.24
  Q 385.10 36.38 381.51 40.02
  Q 367.84 53.85 358.72 69.81
  C 355.95 74.67 351.72 78.07 347.74 81.79
  Q 345.68 83.72 344.45 86.21
  Q 341.10 93.00 337.69 99.79
  A 0.63 0.61 -61.2 0 0 337.91 100.59
  Q 357.15 112.70 376.43 125.04
  C 380.12 127.41 382.29 127.65 383.77 132.49
  C 386.94 142.92 387.64 151.96 388.91 162.35
  A 0.84 0.84 0.0 0 1 388.04 163.29
  L 362.96 162.27
  Q 362.05 162.23 362.82 162.72
  L 381.61 174.88
  Q 382.02 175.15 382.43 174.89
  Q 386.46 172.44 390.25 171.83
  Q 398.40 170.51 405.63 169.67
  Z
  M 515.11 117.20
  L 525.83 125.19
  Q 526.52 125.71 527.27 125.28
  L 684.97 35.69
  A 0.25 0.25 0.0 0 0 684.78 35.24
  Q 590.84 60.70 497.54 85.57
  C 486.90 88.41 476.15 91.57 465.47 94.62
  C 461.75 95.68 461.11 96.79 459.63 100.09
  Q 455.23 109.90 450.85 119.81
  A 1.26 1.22 -44.0 0 0 450.82 120.71
  L 465.33 160.22
  A 0.39 0.39 0.0 0 0 465.88 160.42
  L 511.29 134.40
  Q 511.79 134.11 511.88 133.55
  L 514.46 117.46
  Q 514.57 116.79 515.11 117.20
  Z"
/>
<path fill="#1f292b" d="
  M 415.78 74.38
  L 409.00 76.44
  A 1.70 1.63 -78.3 0 0 408.17 77.01
  L 401.65 85.24
  Q 401.28 85.71 400.76 85.40
  L 392.17 80.19
  A 0.45 0.38 60.8 0 0 391.98 80.12
  L 382.71 79.22
  A 0.39 0.39 0.0 0 1 382.56 78.50
  L 392.91 72.57
  Q 394.18 71.84 392.72 71.78
  L 377.29 71.11
  A 0.38 0.38 0.0 0 1 377.12 70.39
  L 393.15 61.40
  Q 393.56 61.17 394.02 61.30
  L 418.29 68.21
  Q 418.81 68.36 419.17 68.77
  Q 422.35 72.38 426.47 74.92
  A 0.56 0.56 0.0 0 1 426.58 75.79
  L 412.69 90.20
  Q 412.17 90.74 412.13 89.99
  L 411.66 79.47
  Q 411.64 79.05 411.95 78.75
  L 416.03 74.81
  Q 416.81 74.06 415.78 74.38
  Z"
/>
<path fill="#1f292b" d="
  M 419.12 92.34
  L 419.01 93.96
  Q 418.97 94.59 419.50 94.95
  L 422.64 97.06
  Q 423.11 97.38 423.66 97.25
  L 436.48 94.29
  Q 436.94 94.18 436.96 94.65
  Q 437.11 97.43 436.88 100.10
  C 436.52 104.03 433.64 107.98 431.88 111.52
  A 0.67 0.67 0.0 0 1 430.79 111.68
  L 422.52 103.05
  Q 422.19 102.70 421.70 102.64
  C 418.54 102.26 416.30 102.14 413.47 103.98
  Q 407.61 107.80 401.72 111.56
  A 0.24 0.24 0.0 0 1 401.41 111.21
  L 418.41 90.96
  Q 418.81 90.48 419.37 90.75
  Q 419.94 91.02 420.19 91.62
  Q 420.47 92.29 419.78 92.06
  Q 419.59 91.99 419.39 92.03
  Q 419.14 92.08 419.12 92.34
  Z"
/>
<path fill="#1f292b" d="
  M 425.89 143.88
  L 430.30 135.44
  A 0.60 0.60 0.0 0 1 430.79 135.12
  L 440.27 134.36
  A 0.60 0.60 0.0 0 1 440.65 135.45
  L 426.75 144.65
  A 0.60 0.60 0.0 0 1 425.89 143.88
  Z"
/>
<path fill="#1f292b" d="
  M 41.59 294.08
  L 41.56 293.51
  A 0.34 0.34 0.0 0 1 42.19 293.31
  L 48.16 302.42
  A 0.41 0.41 0.0 0 1 47.70 303.03
  L 46.90 302.79
  A 1.45 1.44 42.0 0 0 45.90 302.84
  C 35.57 307.15 19.56 307.93 12.52 297.54
  Q 8.52 291.63 11.26 284.22
  C 16.01 271.35 34.34 271.46 45.10 275.34
  Q 45.59 275.51 46.07 275.31
  L 46.75 275.02
  A 0.34 0.34 0.0 0 1 47.18 275.50
  L 42.10 284.86
  A 0.38 0.38 0.0 0 1 41.40 284.76
  L 41.28 284.16
  Q 41.18 283.68 40.82 283.34
  Q 39.77 282.38 37.99 281.96
  C 31.49 280.40 20.45 280.21 20.09 289.11
  C 19.85 295.14 25.14 297.70 30.47 297.77
  Q 36.80 297.87 41.19 294.88
  Q 41.61 294.59 41.59 294.08
  Z"
/>
<path fill="#1f292b" d="
  M 455.52 303.67
  L 455.52 275.29
  Q 455.52 274.74 455.03 274.46
  L 454.24 274.01
  A 0.31 0.31 0.0 0 1 454.39 273.43
  Q 470.92 273.12 476.99 273.49
  C 495.36 274.60 495.82 302.47 477.07 305.40
  Q 471.78 306.23 454.30 305.53
  A 0.33 0.32 34.2 0 1 454.18 304.91
  L 454.93 304.58
  Q 455.52 304.32 455.52 303.67
  Z
  M 464.74 280.90
  L 464.74 298.04
  A 0.44 0.44 0.0 0 0 465.18 298.48
  L 473.61 298.48
  A 8.15 8.11 -0.0 0 0 481.76 290.37
  L 481.76 288.57
  A 8.15 8.11 0.0 0 0 473.61 280.46
  L 465.18 280.46
  A 0.44 0.44 0.0 0 0 464.74 280.90
  Z"
/>
<path fill="#1f292b" d="
  M 251.33 284.83
  L 242.91 284.82
  Q 242.30 284.82 241.99 285.35
  L 241.66 285.92
  Q 241.17 286.78 241.17 285.79
  L 241.16 277.71
  A 0.33 0.32 -59.5 0 1 241.77 277.55
  L 242.15 278.26
  A 0.77 0.76 75.4 0 0 242.82 278.66
  L 268.96 278.66
  A 0.88 0.88 0.0 0 0 269.69 278.27
  L 270.31 277.34
  A 0.25 0.25 0.0 0 1 270.77 277.48
  L 270.79 285.77
  A 0.27 0.27 0.0 0 1 270.29 285.92
  Q 269.96 285.41 269.55 285.14
  Q 269.14 284.86 268.54 284.84
  Q 264.62 284.70 260.74 284.90
  Q 260.18 284.93 260.18 285.49
  L 260.20 304.03
  A 0.67 0.66 -78.9 0 0 260.61 304.65
  L 261.43 304.99
  A 0.37 0.37 0.0 0 1 261.29 305.71
  L 250.71 305.71
  A 0.40 0.40 0.0 0 1 250.55 304.95
  L 251.40 304.58
  A 0.84 0.83 -12.0 0 0 251.90 303.82
  L 251.90 285.40
  Q 251.90 284.83 251.33 284.83
  Z"
/>
<path fill="#1f292b" d="
  M 158.83 284.71
  L 158.83 288.43
  A 0.60 0.60 0.0 0 0 159.43 289.03
  L 170.51 289.04
  A 0.93 0.92 -76.2 0 0 171.33 288.54
  L 171.70 287.80
  A 0.35 0.35 0.0 0 1 172.36 287.96
  L 172.32 295.21
  A 0.36 0.36 0.0 0 1 171.65 295.38
  L 171.25 294.65
  Q 170.96 294.12 170.36 294.13
  L 159.46 294.14
  Q 158.81 294.14 158.81 294.79
  L 158.86 299.70
  Q 158.86 300.28 159.45 300.28
  L 176.51 300.25
  A 1.22 1.22 0.0 0 0 177.37 299.87
  L 178.19 298.98
  Q 178.74 298.39 178.75 299.20
  L 178.78 306.25
  Q 178.78 306.95 178.23 306.51
  L 177.52 305.95
  A 0.95 0.93 64.0 0 0 176.93 305.74
  L 149.10 305.75
  A 0.41 0.41 0.0 0 1 149.02 304.94
  Q 150.92 304.57 150.77 302.68
  C 150.21 295.46 150.77 287.70 150.66 280.42
  Q 150.65 279.83 150.10 279.63
  L 149.38 279.38
  A 0.35 0.35 0.0 0 1 149.50 278.70
  L 177.15 278.51
  A 0.82 0.80 17.9 0 0 177.80 278.19
  L 178.14 277.73
  Q 178.77 276.91 178.77 277.94
  L 178.75 285.06
  Q 178.75 285.99 178.25 285.21
  L 177.75 284.44
  Q 177.46 284.00 176.93 284.00
  L 159.54 284.00
  Q 158.83 284.00 158.83 284.71
  Z"
/>
<path fill="#1f292b" d="
  M 207.42 284.51
  L 207.39 289.76
  A 0.26 0.26 0.0 0 0 207.65 290.02
  L 219.16 290.00
  A 0.26 0.26 0.0 0 0 219.39 289.86
  L 220.03 288.66
  A 0.26 0.26 0.0 0 1 220.52 288.78
  L 220.58 296.81
  A 0.26 0.26 0.0 0 1 220.11 296.96
  L 219.13 295.46
  A 0.26 0.26 0.0 0 0 218.91 295.34
  L 207.68 295.36
  A 0.26 0.26 0.0 0 0 207.42 295.62
  L 207.44 304.28
  A 0.26 0.26 0.0 0 0 207.63 304.53
  L 210.10 305.21
  A 0.26 0.26 0.0 0 1 210.03 305.72
  L 196.71 305.70
  A 0.26 0.26 0.0 0 1 196.64 305.19
  L 199.05 304.47
  A 0.26 0.26 0.0 0 0 199.24 304.22
  L 199.24 280.09
  A 0.26 0.26 0.0 0 0 199.06 279.84
  L 197.09 279.18
  A 0.26 0.26 0.0 0 1 197.17 278.67
  L 224.53 278.67
  A 0.26 0.26 0.0 0 0 224.76 278.53
  L 225.50 277.09
  A 0.26 0.26 0.0 0 1 225.99 277.21
  L 226.01 285.38
  A 0.26 0.26 0.0 0 1 225.53 285.53
  L 224.73 284.36
  A 0.26 0.26 0.0 0 0 224.51 284.25
  L 207.68 284.25
  A 0.26 0.26 0.0 0 0 207.42 284.51
  Z"
/>
<path fill="#1f292b" d="
  M 518.24 294.38
  L 518.22 300.02
  A 0.25 0.25 0.0 0 0 518.47 300.27
  L 536.29 300.27
  A 0.25 0.25 0.0 0 0 536.49 300.17
  L 537.55 298.77
  A 0.25 0.25 0.0 0 1 538.00 298.92
  L 538.02 306.62
  A 0.25 0.25 0.0 0 1 537.58 306.78
  L 536.75 305.86
  A 0.25 0.25 0.0 0 0 536.57 305.78
  L 508.01 305.71
  A 0.25 0.25 0.0 0 1 507.90 305.24
  L 509.87 304.28
  A 0.25 0.25 0.0 0 0 510.01 304.05
  L 510.00 279.96
  A 0.25 0.25 0.0 0 0 509.82 279.72
  L 507.81 279.17
  A 0.25 0.25 0.0 0 1 507.87 278.68
  L 536.55 278.67
  A 0.25 0.25 0.0 0 0 536.77 278.54
  L 537.52 277.15
  A 0.25 0.25 0.0 0 1 537.99 277.26
  L 538.02 285.25
  A 0.25 0.25 0.0 0 1 537.55 285.36
  L 536.89 284.12
  A 0.25 0.25 0.0 0 0 536.67 283.99
  L 518.50 284.00
  A 0.25 0.25 0.0 0 0 518.25 284.25
  L 518.18 288.78
  A 0.25 0.25 0.0 0 0 518.43 289.03
  L 530.10 289.04
  A 0.25 0.25 0.0 0 0 530.28 288.96
  L 531.30 287.88
  A 0.25 0.25 0.0 0 1 531.73 288.06
  L 531.70 295.31
  A 0.25 0.25 0.0 0 1 531.25 295.45
  L 530.36 294.21
  A 0.25 0.25 0.0 0 0 530.16 294.11
  L 518.49 294.13
  A 0.25 0.25 0.0 0 0 518.24 294.38
  Z"
/>
<path fill="#1f292b" d="
  M 567.25 290.01
  L 577.97 290.01
  Q 578.58 290.01 578.93 289.52
  L 579.27 289.03
  Q 579.81 288.27 579.81 289.21
  L 579.84 296.33
  A 0.32 0.32 0.0 0 1 579.23 296.48
  L 578.92 295.84
  A 0.87 0.86 76.5 0 0 578.15 295.36
  L 567.45 295.33
  Q 566.74 295.33 566.74 296.04
  L 566.75 303.84
  Q 566.75 304.41 567.28 304.62
  L 568.03 304.94
  A 0.37 0.37 0.0 0 1 567.91 305.65
  Q 562.58 305.86 557.30 305.61
  Q 557.02 305.59 556.87 305.45
  A 0.29 0.28 58.6 0 1 556.98 304.97
  L 557.96 304.65
  A 0.77 0.76 81.2 0 0 558.49 303.92
  L 558.49 280.42
  A 0.82 0.81 9.6 0 0 557.94 279.65
  L 556.72 279.22
  A 0.28 0.28 0.0 0 1 556.81 278.68
  L 583.47 278.64
  Q 583.94 278.64 584.17 278.24
  L 584.56 277.56
  A 0.37 0.37 0.0 0 1 585.25 277.74
  L 585.25 285.30
  A 0.32 0.32 0.0 0 1 584.65 285.45
  L 584.27 284.73
  A 0.90 0.89 -13.8 0 0 583.48 284.26
  L 567.25 284.25
  Q 566.74 284.25 566.74 284.75
  L 566.73 289.50
  Q 566.73 290.01 567.25 290.01
  Z"
/>
<path fill="#1f292b" d="
  M 611.36 284.69
  L 611.32 288.49
  Q 611.32 288.95 611.77 288.97
  C 615.12 289.11 618.47 288.92 621.78 289.13
  Q 623.41 289.23 624.39 287.96
  Q 624.83 287.39 624.83 288.11
  L 624.80 295.28
  A 0.25 0.24 32.4 0 1 624.33 295.38
  L 623.92 294.56
  Q 623.70 294.13 623.23 294.13
  L 611.97 294.15
  Q 611.35 294.15 611.35 294.78
  L 611.34 299.56
  Q 611.34 300.28 612.06 300.28
  L 629.17 300.26
  A 0.86 0.84 16.9 0 0 629.87 299.90
  L 630.50 299.00
  A 0.42 0.42 0.0 0 1 631.26 299.24
  L 631.28 306.24
  A 0.42 0.42 0.0 0 1 630.53 306.50
  L 630.24 306.14
  Q 629.92 305.72 629.39 305.72
  L 602.25 305.72
  Q 600.78 305.71 601.83 304.73
  Q 601.96 304.61 602.44 304.63
  A 0.63 0.63 0.0 0 0 603.10 304.00
  L 603.12 280.30
  Q 603.12 279.82 602.67 279.65
  L 601.61 279.25
  A 0.30 0.29 -34.3 0 1 601.72 278.68
  L 629.43 278.67
  Q 629.89 278.67 630.14 278.27
  L 630.62 277.51
  A 0.35 0.35 0.0 0 1 631.27 277.70
  L 631.26 285.01
  A 0.37 0.37 0.0 0 1 630.57 285.18
  L 630.16 284.42
  A 0.84 0.82 75.0 0 0 629.44 283.99
  L 612.06 284.00
  Q 611.37 284.00 611.36 284.69
  Z"
/>
<path fill="#1f292b" d="
  M 756.98 294.40
  L 756.97 300.03
  A 0.26 0.26 0.0 0 0 757.23 300.29
  L 775.10 300.22
  A 0.26 0.26 0.0 0 0 775.30 300.13
  L 776.38 298.82
  A 0.26 0.26 0.0 0 1 776.84 298.98
  L 776.88 306.38
  A 0.26 0.26 0.0 0 1 776.46 306.59
  L 775.46 305.84
  A 0.26 0.26 0.0 0 0 775.30 305.79
  L 746.82 305.69
  A 0.26 0.26 0.0 0 1 746.72 305.20
  L 748.68 304.33
  A 0.26 0.26 0.0 0 0 748.83 304.09
  L 748.83 280.13
  A 0.26 0.26 0.0 0 0 748.67 279.88
  L 746.90 279.17
  A 0.26 0.26 0.0 0 1 746.99 278.67
  L 775.40 278.67
  A 0.26 0.26 0.0 0 0 775.62 278.55
  L 776.41 277.34
  A 0.26 0.26 0.0 0 1 776.89 277.48
  L 776.86 285.33
  A 0.26 0.26 0.0 0 1 776.37 285.45
  L 775.69 284.14
  A 0.26 0.26 0.0 0 0 775.46 284.00
  L 757.24 284.00
  A 0.26 0.26 0.0 0 0 756.98 284.26
  L 756.97 288.79
  A 0.26 0.26 0.0 0 0 757.23 289.05
  L 769.16 289.01
  A 0.26 0.26 0.0 0 0 769.39 288.86
  L 770.02 287.53
  A 0.26 0.26 0.0 0 1 770.52 287.64
  L 770.51 295.53
  A 0.26 0.26 0.0 0 1 770.03 295.67
  L 769.11 294.26
  A 0.26 0.26 0.0 0 0 768.89 294.14
  L 757.24 294.14
  A 0.26 0.26 0.0 0 0 756.98 294.40
  Z"
/>
<path fill="#1f292b" d="
  M 710.21 285.15
  A 1.20 1.20 0.0 0 0 709.62 286.68
  Q 710.20 288.09 712.10 288.32
  Q 716.81 288.87 723.24 290.17
  C 731.74 291.89 731.78 302.20 724.26 304.59
  Q 714.59 307.67 703.82 303.76
  Q 703.34 303.59 702.88 303.80
  L 701.62 304.40
  Q 700.87 304.75 701.10 303.95
  L 703.22 296.75
  Q 703.47 295.93 703.80 296.72
  Q 704.70 298.82 706.95 299.21
  C 710.57 299.85 718.24 301.85 721.31 299.23
  Q 721.66 298.93 721.68 298.47
  Q 721.81 295.97 719.91 295.77
  C 716.62 295.42 707.40 295.03 703.75 291.79
  C 699.26 287.81 702.71 281.76 707.34 279.85
  C 713.39 277.35 720.52 278.38 726.73 279.75
  Q 727.21 279.85 727.68 279.73
  L 728.99 279.36
  Q 729.75 279.16 729.41 279.86
  L 726.11 286.63
  Q 725.79 287.28 725.47 286.63
  C 724.49 284.71 723.09 284.98 721.53 284.46
  Q 715.66 282.51 710.21 285.15
  Z"
/>
<path fill="#1f292b" d="
  M 128.14 280.34
  L 128.15 303.94
  Q 128.15 304.47 128.67 304.59
  L 130.03 304.89
  A 0.42 0.41 51.3 0 1 129.94 305.71
  L 118.22 305.72
  A 0.38 0.37 -54.5 0 1 118.10 304.99
  L 119.43 304.52
  Q 119.92 304.36 119.92 303.84
  L 119.90 280.28
  Q 119.90 279.76 119.40 279.63
  L 118.22 279.31
  A 0.31 0.31 0.0 0 1 118.30 278.70
  L 129.69 278.65
  A 0.35 0.35 0.0 0 1 129.78 279.33
  L 128.71 279.61
  Q 128.14 279.75 128.14 280.34
  Z"
/>
<path fill="#1f292b" d="
  M 296.93 300.54
  Q 295.27 302.60 295.36 305.10
  Q 295.39 305.71 294.77 305.71
  L 287.00 305.71
  A 0.35 0.35 0.0 0 1 286.80 305.08
  L 287.68 304.45
  A 0.71 0.62 -9.4 0 0 287.90 304.18
  L 298.40 280.57
  Q 298.60 280.13 298.27 279.76
  L 297.88 279.31
  Q 297.31 278.67 298.17 278.67
  L 309.99 278.67
  Q 310.71 278.66 310.32 279.27
  L 310.02 279.73
  A 0.87 0.86 -41.2 0 0 309.96 280.58
  L 320.96 303.75
  Q 321.19 304.25 321.63 304.59
  L 322.22 305.05
  A 0.36 0.36 0.0 0 1 322.00 305.70
  L 312.50 305.73
  Q 311.88 305.73 312.28 305.25
  L 312.68 304.75
  Q 313.05 304.30 312.81 303.77
  L 311.32 300.60
  Q 311.13 300.19 310.69 300.19
  L 297.71 300.17
  Q 297.23 300.16 296.93 300.54
  Z
  M 299.05 295.31
  A 0.34 0.34 0.0 0 0 299.36 295.80
  L 308.57 295.73
  A 0.34 0.34 0.0 0 0 308.88 295.24
  L 304.20 285.54
  A 0.34 0.34 0.0 0 0 303.59 285.54
  L 299.05 295.31
  Z"
/>
<path fill="#1f292b" d="
  M 380.33 288.16
  L 380.33 304.21
  A 0.24 0.24 0.0 0 0 380.47 304.43
  L 382.26 305.28
  A 0.24 0.24 0.0 0 1 382.15 305.73
  L 371.13 305.67
  A 0.24 0.24 0.0 0 1 371.04 305.21
  L 372.79 304.44
  A 0.24 0.24 0.0 0 0 372.93 304.22
  L 372.92 280.05
  A 0.24 0.24 0.0 0 0 372.78 279.83
  L 371.25 279.14
  A 0.24 0.24 0.0 0 1 371.35 278.68
  L 385.79 278.66
  A 0.24 0.24 0.0 0 1 385.94 279.09
  L 384.55 280.13
  A 0.24 0.24 0.0 0 0 384.51 280.49
  L 395.48 292.20
  A 0.24 0.24 0.0 0 0 395.90 292.04
  L 395.86 279.90
  A 0.24 0.24 0.0 0 0 395.68 279.66
  L 393.69 279.16
  A 0.24 0.24 0.0 0 1 393.75 278.69
  L 405.05 278.64
  A 0.24 0.24 0.0 0 1 405.15 279.10
  L 403.39 279.86
  A 0.24 0.24 0.0 0 0 403.25 280.08
  L 403.25 304.18
  A 0.24 0.24 0.0 0 0 403.39 304.39
  L 405.34 305.28
  A 0.24 0.24 0.0 0 1 405.24 305.74
  L 392.84 305.70
  A 0.24 0.24 0.0 0 1 392.78 305.22
  L 395.67 304.40
  A 0.24 0.24 0.0 0 0 395.78 304.00
  L 380.74 287.99
  A 0.24 0.24 0.0 0 0 380.33 288.16
  Z"
/>
<path fill="#1f292b" d="
  M 659.50 304.41
  L 661.14 305.25
  A 0.25 0.25 0.0 0 1 661.03 305.72
  L 649.88 305.70
  A 0.25 0.25 0.0 0 1 649.80 305.22
  L 651.76 304.51
  A 0.25 0.25 0.0 0 0 651.92 304.27
  L 651.93 280.08
  A 0.25 0.25 0.0 0 0 651.78 279.85
  L 650.18 279.16
  A 0.25 0.25 0.0 0 1 650.28 278.68
  L 664.80 278.66
  A 0.25 0.25 0.0 0 1 664.93 279.12
  L 663.48 280.01
  A 0.25 0.25 0.0 0 0 663.43 280.39
  L 674.47 292.23
  A 0.25 0.25 0.0 0 0 674.90 292.06
  L 674.88 280.00
  A 0.25 0.25 0.0 0 0 674.71 279.76
  L 672.97 279.18
  A 0.25 0.25 0.0 0 1 673.05 278.69
  L 684.42 278.65
  A 0.25 0.25 0.0 0 1 684.48 279.14
  L 682.42 279.68
  A 0.25 0.25 0.0 0 0 682.23 279.92
  L 682.22 304.23
  A 0.25 0.25 0.0 0 0 682.38 304.47
  L 684.44 305.22
  A 0.25 0.25 0.0 0 1 684.35 305.70
  L 672.26 305.71
  A 0.25 0.25 0.0 0 1 672.17 305.22
  L 674.59 304.34
  A 0.25 0.25 0.0 0 0 674.69 303.93
  L 659.72 287.97
  A 0.25 0.25 0.0 0 0 659.28 288.15
  L 659.36 304.19
  A 0.25 0.25 0.0 0 0 659.50 304.41
  Z"
/>
<path fill="#1f292b" d="
  M 75.49 295.00
  L 75.48 303.99
  A 0.65 0.63 8.7 0 0 75.94 304.60
  L 76.88 304.88
  A 0.44 0.44 0.0 0 1 76.75 305.74
  L 65.51 305.60
  A 0.31 0.31 0.0 0 1 65.42 305.00
  L 66.70 304.61
  A 0.77 0.76 82.2 0 0 67.24 303.89
  Q 67.33 293.56 67.22 283.28
  C 67.21 281.49 67.96 280.14 65.89 279.20
  Q 64.72 278.67 66.00 278.67
  L 77.28 278.69
  A 0.27 0.27 0.0 0 1 77.35 279.22
  L 76.01 279.60
  Q 75.50 279.75 75.50 280.28
  L 75.49 287.74
  Q 75.49 288.24 75.99 288.24
  L 88.56 288.24
  A 0.56 0.56 0.0 0 0 89.12 287.69
  L 89.15 280.33
  Q 89.16 279.89 88.75 279.72
  L 87.60 279.25
  A 0.30 0.30 0.0 0 1 87.71 278.67
  L 98.72 278.68
  A 0.34 0.34 0.0 0 1 98.81 279.34
  L 97.89 279.62
  Q 97.37 279.77 97.37 280.30
  L 97.40 303.78
  Q 97.40 304.48 98.06 304.68
  L 99.00 304.98
  A 0.39 0.38 -36.1 0 1 98.88 305.73
  L 87.73 305.69
  A 0.43 0.43 0.0 0 1 87.63 304.85
  L 88.62 304.60
  Q 89.16 304.46 89.16 303.91
  L 89.17 295.07
  A 0.60 0.59 0.0 0 0 88.57 294.48
  L 76.00 294.49
  Q 75.49 294.49 75.49 295.00
  Z"
/>
<path fill="#1f292b" d="
  M 341.79 279.65
  L 340.39 279.20
  A 0.27 0.26 -35.7 0 1 340.48 278.68
  L 352.20 278.67
  A 0.32 0.32 0.0 0 1 352.27 279.30
  L 351.16 279.55
  A 0.86 0.86 0.0 0 0 350.50 280.39
  L 350.50 304.07
  Q 350.50 304.57 350.99 304.65
  L 352.34 304.88
  Q 352.79 304.95 352.63 305.37
  Q 352.53 305.63 352.30 305.64
  Q 347.35 305.92 340.56 305.62
  A 0.36 0.36 0.0 0 1 340.49 304.91
  L 341.80 304.59
  Q 342.28 304.48 342.28 303.98
  L 342.27 280.32
  A 0.71 0.70 -80.9 0 0 341.79 279.65
  Z"
/>
</svg>
