<?xml version="1.0" encoding="UTF-8" standalone="no"?>
<!DOCTYPE svg PUBLIC "-//W3C//DTD SVG 1.1//EN" "http://www.w3.org/Graphics/SVG/1.1/DTD/svg11.dtd">
<svg xmlns="http://www.w3.org/2000/svg" version="1.1" viewBox="0.00 0.00 779.00 320.00">
<path fill="#ffffff" d="
  M 300.13 60.11
  Q 306.27 40.58 312.24 20.98
  C 313.35 17.34 316.07 15.38 318.98 13.34
  Q 320.60 12.21 322.79 12.13
  Q 334.25 11.73 346.35 11.04
  Q 348.20 10.93 347.04 12.37
  Q 331.41 31.81 314.63 51.63
  Q 308.55 58.83 299.81 73.87
  A 1.67 1.64 -85.7 0 1 299.03 74.55
  L 262.16 89.98
  A 0.11 0.11 0.0 0 1 262.05 89.80
  L 299.53 60.97
  Q 299.97 60.64 300.13 60.11
  Z"
/>
<path fill="#ffffff" d="
  M 364.28 22.43
  A 0.50 0.48 -56.0 0 0 363.67 22.56
  Q 344.40 46.94 324.92 71.11
  C 322.27 74.40 318.29 75.97 314.78 78.08
  A 0.39 0.39 0.0 0 1 314.25 77.54
  L 351.11 18.72
  A 2.46 2.43 8.3 0 1 352.56 17.65
  L 371.17 12.67
  Q 371.66 12.54 371.93 12.97
  L 383.90 32.30
  A 0.36 0.36 0.0 0 1 383.42 32.81
  L 364.28 22.43
  Z"
/>
<path fill="#ffffff" d="
  M 395.75 30.16
  L 397.82 37.77
  A 0.31 0.31 0.0 0 1 397.38 38.13
  L 390.41 34.65
  A 0.31 0.31 0.0 0 1 390.31 34.17
  L 399.36 23.75
  A 0.31 0.31 0.0 0 1 399.88 23.83
  L 405.65 37.77
  A 0.31 0.31 0.0 0 1 405.15 38.11
  L 396.26 29.85
  A 0.31 0.31 0.0 0 0 395.75 30.16
  Z"
/>
<path fill="#ffffff" d="
  M 418.96 131.40
  L 438.82 126.18
  Q 439.35 126.04 439.61 126.52
  L 445.40 136.95
  Q 445.63 137.37 445.38 137.77
  L 444.62 138.99
  Q 444.35 139.43 444.53 139.91
  L 454.88 167.38
  A 0.60 0.59 -16.6 0 1 454.45 168.17
  Q 439.58 171.39 424.49 174.23
  Q 421.71 174.76 419.31 176.22
  Q 403.17 186.00 387.02 195.72
  A 1.82 1.82 0.0 0 0 386.34 196.43
  Q 381.86 204.86 377.60 213.29
  C 377.19 214.10 376.11 215.35 375.13 215.90
  Q 368.09 219.80 363.36 226.14
  A 0.18 0.18 0.0 0 0 363.59 226.40
  L 463.16 167.71
  A 0.82 0.82 0.0 0 0 463.54 166.77
  Q 457.81 146.63 450.60 126.97
  A 1.07 1.06 47.8 0 1 450.64 126.11
  L 464.03 98.69
  A 0.95 0.95 0.0 0 0 463.95 97.72
  L 417.79 33.94
  A 0.26 0.25 71.6 0 1 417.99 33.53
  L 491.15 33.29
  A 1.56 1.54 -17.1 0 1 492.43 33.96
  L 505.12 52.59
  A 0.53 0.52 39.8 0 0 506.03 52.51
  L 514.52 33.82
  Q 514.76 33.29 515.35 33.29
  L 592.53 33.41
  Q 593.20 33.42 593.53 34.00
  L 599.43 44.51
  A 0.45 0.45 0.0 0 0 600.23 44.49
  L 605.53 33.98
  Q 605.80 33.46 606.38 33.46
  L 693.72 33.51
  A 0.32 0.31 30.0 0 1 693.88 34.10
  Q 606.58 84.34 520.33 136.35
  A 0.78 0.77 54.0 0 1 519.34 136.19
  L 510.62 126.08
  A 0.35 0.35 0.0 0 0 510.01 126.29
  L 509.16 142.29
  A 1.01 0.97 74.8 0 1 508.75 143.04
  Q 507.63 143.82 505.71 144.98
  Q 436.87 186.50 359.43 231.41
  C 357.31 232.63 355.68 233.30 353.18 232.47
  Q 317.57 220.74 281.68 208.95
  A 0.28 0.28 0.0 0 1 281.76 208.41
  L 332.10 206.90
  Q 333.82 206.85 333.59 205.14
  L 329.95 177.80
  Q 329.86 177.12 330.52 177.32
  L 373.15 190.70
  Q 373.60 190.84 374.04 190.65
  L 404.51 177.23
  A 0.20 0.19 27.7 0 0 404.39 176.86
  L 382.02 180.70
  Q 381.48 180.79 381.02 180.52
  L 354.77 165.04
  Q 353.13 164.07 355.01 164.40
  L 382.00 169.09
  A 1.71 1.70 13.4 0 0 383.93 167.91
  Q 389.39 150.23 382.73 134.03
  Q 381.89 131.99 380.05 130.55
  Q 359.67 114.65 335.73 104.96
  Q 335.21 104.76 335.44 104.25
  C 338.15 98.15 340.81 91.05 345.30 86.08
  Q 366.90 62.16 388.15 36.94
  A 1.76 1.75 33.3 0 1 390.28 36.50
  Q 402.14 42.43 412.75 51.29
  Q 419.24 56.71 433.83 73.07
  Q 434.16 73.44 433.89 73.87
  L 432.69 75.72
  Q 432.41 76.14 432.78 76.49
  L 452.12 94.59
  A 0.94 0.94 0.0 0 1 451.87 96.13
  L 443.42 99.92
  A 1.00 0.99 81.4 0 0 442.85 100.70
  C 442.30 105.25 441.20 110.51 444.53 114.28
  A 0.59 0.59 0.0 0 1 444.57 115.01
  L 440.85 120.12
  Q 440.53 120.56 439.99 120.54
  L 433.79 120.21
  A 0.78 0.72 -59.3 0 0 433.29 120.36
  L 418.78 131.03
  A 0.21 0.21 0.0 0 0 418.96 131.40
  Z
  M 599.51 46.41
  Q 596.62 42.28 594.62 37.66
  Q 593.69 35.52 591.74 35.52
  Q 554.06 35.50 516.28 35.28
  A 0.81 0.81 0.0 0 0 515.55 35.74
  L 506.36 55.51
  A 0.70 0.70 0.0 0 1 505.14 55.59
  L 492.51 36.06
  A 1.64 1.61 -15.8 0 0 491.16 35.32
  L 421.00 34.86
  Q 420.51 34.86 420.80 35.25
  L 466.44 97.10
  A 0.77 0.74 63.0 0 0 467.26 97.38
  L 686.29 36.30
  A 0.26 0.25 37.2 0 0 686.22 35.80
  L 608.13 35.56
  A 3.32 3.31 -75.8 0 0 605.19 37.32
  L 600.38 46.35
  A 0.51 0.51 0.0 0 1 599.51 46.41
  Z
  M 395.98 72.79
  A 0.67 0.67 0.0 0 1 396.29 74.07
  L 383.69 79.93
  A 0.28 0.28 0.0 0 0 383.80 80.47
  L 392.13 80.60
  A 1.08 1.05 63.4 0 1 392.73 80.81
  L 399.97 86.21
  A 0.79 0.78 41.8 0 0 400.96 86.16
  C 404.04 83.33 406.91 80.00 411.02 78.66
  Q 414.85 77.41 418.52 75.73
  Q 419.20 75.42 419.78 75.50
  A 0.49 0.48 28.5 0 1 420.03 76.34
  L 413.00 82.59
  Q 412.62 82.93 412.60 83.44
  L 412.33 90.71
  Q 412.30 91.59 412.92 90.97
  L 427.19 76.73
  A 0.42 0.42 0.0 0 0 427.04 76.03
  L 395.52 64.57
  A 0.83 0.81 41.5 0 0 394.88 64.60
  L 377.86 72.86
  A 0.33 0.33 0.0 0 0 378.02 73.49
  L 395.98 72.79
  Z
  M 437.53 99.67
  L 424.53 101.70
  Q 423.96 101.78 423.49 101.47
  L 417.47 97.42
  Q 417.11 97.18 416.83 97.51
  L 403.36 113.61
  A 0.20 0.20 0.0 0 0 403.63 113.89
  L 414.87 105.14
  Q 415.21 104.87 415.63 104.82
  C 423.31 103.74 428.06 108.14 432.38 113.33
  A 0.38 0.37 35.8 0 0 433.02 113.23
  L 438.03 100.30
  A 0.46 0.46 0.0 0 0 437.53 99.67
  Z
  M 429.23 147.36
  A 0.31 0.31 0.0 0 0 429.68 147.74
  L 441.88 139.93
  A 0.31 0.31 0.0 0 0 441.67 139.36
  L 432.21 140.63
  A 0.31 0.31 0.0 0 0 431.96 140.81
  L 429.23 147.36
  Z"
/>
<path fill="#ffffff" d="
  M 306.48 150.41
  L 320.80 135.99
  A 0.97 0.97 0.0 0 0 321.01 134.93
  L 314.27 119.01
  Q 313.61 117.44 314.82 118.64
  L 330.64 134.36
  A 1.17 1.17 0.0 0 1 330.59 136.07
  Q 319.24 146.13 309.25 157.53
  Q 308.95 157.87 308.53 157.71
  L 283.96 148.19
  A 1.00 0.99 5.4 0 1 283.33 147.44
  L 279.99 129.27
  A 0.27 0.27 0.0 0 1 280.50 129.10
  C 282.38 132.91 286.53 143.63 290.45 145.06
  Q 297.98 147.82 305.47 150.63
  A 0.96 0.94 -56.7 0 0 306.48 150.41
  Z"
/>
<path fill="#ffffff" d="
  M 209.73 136.02
  L 173.00 135.45
  A 0.19 0.19 0.0 0 1 172.94 135.09
  L 212.07 120.30
  Q 212.56 120.11 213.05 120.29
  L 250.73 133.66
  Q 251.27 133.85 250.82 134.21
  L 234.73 146.92
  Q 234.35 147.23 233.86 147.29
  L 222.03 148.84
  A 1.22 1.20 14.2 0 0 221.23 149.31
  L 214.54 158.09
  Q 213.35 159.65 215.31 159.50
  L 230.20 158.36
  Q 231.58 158.25 230.40 158.98
  Q 218.92 166.11 207.28 172.79
  Q 205.53 173.80 203.50 173.80
  Q 182.24 173.82 161.04 173.42
  Q 160.37 173.41 160.82 172.92
  Q 171.73 161.14 182.61 149.39
  Q 184.17 147.71 186.33 146.85
  Q 198.27 142.07 209.86 136.63
  Q 211.13 136.04 209.73 136.02
  Z"
/>
<path fill="#ffffff" d="
  M 39.34 295.44
  L 39.34 294.99
  A 0.37 0.37 0.0 0 1 40.02 294.78
  L 45.64 303.34
  Q 45.99 303.88 45.35 303.86
  C 44.50 303.84 44.05 303.68 43.23 304.02
  C 33.70 307.95 17.82 308.95 11.13 299.56
  C 7.51 294.48 7.08 288.20 10.34 282.87
  C 16.71 272.46 32.48 273.18 42.35 276.41
  Q 42.83 276.56 43.34 276.52
  L 44.28 276.45
  Q 44.90 276.40 44.60 276.94
  L 39.90 285.71
  Q 39.45 286.54 39.12 285.66
  L 38.67 284.43
  A 0.73 0.72 1.2 0 0 38.28 284.03
  Q 31.43 281.27 24.28 283.02
  C 15.80 285.09 15.33 295.63 23.83 298.09
  Q 31.75 300.38 38.84 296.32
  Q 39.35 296.03 39.34 295.44
  Z"
/>
<path fill="#ffffff" d="
  M 449.52 275.63
  L 448.74 275.23
  A 0.24 0.24 0.0 0 1 448.85 274.78
  Q 460.77 274.37 470.49 274.80
  C 487.99 275.58 490.43 299.41 475.48 305.23
  C 468.71 307.87 457.19 306.76 449.01 306.71
  A 0.30 0.30 0.0 0 1 448.87 306.15
  L 449.63 305.75
  A 0.69 0.68 76.6 0 0 450.00 305.14
  L 450.00 276.42
  A 0.89 0.89 0.0 0 0 449.52 275.63
  Z
  M 459.29 282.09
  L 459.21 299.19
  A 0.40 0.40 0.0 0 0 459.60 299.59
  L 467.81 299.63
  A 8.64 8.39 -89.7 0 0 476.25 291.03
  L 476.25 290.41
  A 8.64 8.39 -89.7 0 0 467.91 281.73
  L 459.70 281.69
  A 0.40 0.40 0.0 0 0 459.29 282.09
  Z"
/>
<path fill="#ffffff" d="
  M 204.85 291.14
  L 215.65 291.09
  Q 216.22 291.09 216.50 290.59
  L 216.78 290.08
  A 0.28 0.28 0.0 0 1 217.30 290.21
  L 217.30 297.29
  A 0.33 0.32 29.0 0 1 216.70 297.46
  L 216.35 296.90
  Q 216.09 296.49 215.60 296.49
  L 204.79 296.49
  A 0.47 0.46 90.0 0 0 204.33 296.96
  L 204.32 304.86
  A 1.03 1.00 -72.8 0 0 204.74 305.69
  L 205.46 306.20
  Q 206.18 306.71 205.30 306.71
  L 195.06 306.62
  Q 194.36 306.62 194.95 306.24
  L 195.50 305.89
  Q 196.08 305.52 196.08 304.84
  L 196.12 281.78
  A 1.00 0.99 11.0 0 0 195.49 280.86
  L 194.50 280.47
  A 0.35 0.35 0.0 0 1 194.63 279.80
  Q 207.47 279.65 220.27 279.78
  C 221.33 279.79 221.81 279.42 222.40 278.64
  Q 222.73 278.21 222.73 278.75
  L 222.80 286.29
  Q 222.81 287.08 222.31 286.47
  Q 221.43 285.40 220.76 285.39
  Q 212.85 285.33 204.97 285.40
  Q 204.40 285.40 204.39 285.97
  L 204.31 290.59
  A 0.54 0.54 0.0 0 0 204.85 291.14
  Z"
/>
<path fill="#ffffff" d="
  M 512.25 295.75
  L 512.25 300.81
  Q 512.25 301.38 512.82 301.39
  Q 525.17 301.56 529.13 301.37
  Q 530.27 301.31 531.40 300.04
  Q 531.96 299.41 531.95 300.26
  L 531.90 307.23
  Q 531.89 307.84 531.41 307.48
  C 530.75 307.01 530.35 306.73 529.49 306.73
  Q 516.34 306.76 503.18 306.72
  Q 502.54 306.71 502.99 306.26
  L 503.65 305.60
  Q 503.96 305.28 503.97 304.84
  L 504.00 281.71
  A 0.90 0.90 0.0 0 0 503.51 280.91
  L 502.58 280.43
  A 0.36 0.36 0.0 0 1 502.74 279.75
  L 530.16 279.75
  Q 530.68 279.75 530.98 279.32
  L 531.46 278.67
  A 0.27 0.27 0.0 0 1 531.96 278.83
  L 531.86 285.87
  A 0.30 0.30 0.0 0 1 531.32 286.04
  L 530.91 285.47
  A 0.73 0.73 0.0 0 0 530.32 285.17
  L 512.79 285.18
  Q 512.26 285.18 512.26 285.71
  L 512.24 289.56
  Q 512.24 290.12 512.81 290.12
  L 523.56 290.12
  Q 524.04 290.12 524.39 289.81
  L 524.76 289.47
  Q 525.51 288.80 525.51 289.81
  L 525.52 296.16
  Q 525.53 296.90 525.01 296.37
  L 524.30 295.65
  Q 523.92 295.27 523.38 295.27
  L 512.75 295.26
  Q 512.25 295.26 512.25 295.75
  Z"
/>
<path fill="#ffffff" d="
  M 156.17 295.78
  L 156.12 300.77
  Q 156.11 301.43 156.77 301.43
  L 173.49 301.43
  Q 174.10 301.43 174.51 300.97
  L 175.34 300.05
  A 0.34 0.33 66.3 0 1 175.92 300.28
  L 175.94 307.28
  Q 175.95 307.93 175.42 307.54
  L 174.70 307.00
  Q 174.35 306.74 173.92 306.74
  L 146.85 306.74
  Q 146.42 306.74 146.73 306.44
  L 147.83 305.37
  A 0.39 0.37 68.3 0 0 147.94 305.10
  L 148.01 281.76
  A 0.92 0.90 -77.0 0 0 147.51 280.94
  L 146.55 280.47
  A 0.38 0.38 0.0 0 1 146.71 279.75
  L 174.25 279.75
  Q 174.66 279.75 174.91 279.41
  L 175.38 278.75
  Q 175.94 277.97 175.94 278.93
  L 175.89 286.25
  Q 175.89 287.07 175.49 286.35
  C 175.04 285.56 174.70 285.21 173.71 285.20
  Q 165.20 285.14 156.71 285.20
  Q 156.16 285.20 156.15 285.76
  L 156.13 289.49
  Q 156.12 290.11 156.74 290.12
  L 167.36 290.28
  Q 167.92 290.28 168.29 289.87
  L 169.03 289.04
  A 0.28 0.27 65.5 0 1 169.51 289.22
  L 169.52 296.20
  Q 169.52 297.23 168.92 296.40
  L 168.50 295.83
  Q 168.14 295.34 167.53 295.33
  L 156.72 295.24
  A 0.54 0.54 0.0 0 0 156.17 295.78
  Z"
/>
<path fill="#ffffff" d="
  M 256.19 286.58
  Q 255.90 294.07 256.09 301.57
  C 256.14 303.34 255.54 304.97 257.14 306.40
  Q 257.55 306.76 257.01 306.76
  L 247.23 306.70
  Q 246.50 306.70 247.03 306.21
  L 247.50 305.77
  Q 247.87 305.43 247.87 304.94
  L 247.88 286.70
  Q 247.88 286.08 247.27 286.05
  Q 243.27 285.86 239.38 286.07
  C 238.49 286.12 238.07 286.37 237.63 287.09
  Q 237.31 287.59 237.31 287.00
  L 237.25 278.99
  Q 237.25 278.31 237.74 278.77
  L 238.37 279.36
  Q 238.78 279.75 239.34 279.75
  L 264.85 279.75
  Q 265.38 279.75 265.76 279.36
  L 266.29 278.81
  Q 266.71 278.37 266.69 278.98
  Q 266.58 282.98 266.65 286.94
  Q 266.66 287.16 266.56 287.27
  Q 266.46 287.37 266.34 287.41
  Q 266.20 287.44 266.18 287.30
  Q 266.02 286.13 264.75 286.08
  Q 260.76 285.92 256.75 286.02
  Q 256.21 286.04 256.19 286.58
  Z"
/>
<path fill="#ffffff" d="
  M 560.81 291.05
  C 563.94 291.25 567.07 291.02 570.21 291.20
  Q 571.79 291.29 572.90 290.07
  Q 573.40 289.52 573.39 290.26
  L 573.25 297.31
  Q 573.24 298.19 572.77 297.45
  L 572.44 296.91
  A 0.89 0.88 74.0 0 0 571.69 296.49
  L 560.80 296.49
  A 0.46 0.45 90.0 0 0 560.35 296.95
  L 560.32 304.88
  A 0.95 0.93 -72.2 0 0 560.70 305.64
  L 561.47 306.22
  Q 562.16 306.74 561.30 306.74
  L 551.35 306.74
  Q 550.68 306.74 551.19 306.31
  L 551.88 305.73
  A 1.04 1.02 -20.6 0 0 552.24 304.95
  L 552.24 281.70
  Q 552.24 281.12 551.71 280.91
  L 550.58 280.44
  A 0.36 0.36 0.0 0 1 550.71 279.75
  L 576.87 279.75
  Q 577.19 279.75 577.44 279.55
  L 578.36 278.84
  Q 578.73 278.55 578.74 279.02
  L 578.80 286.27
  A 0.25 0.25 0.0 0 1 578.34 286.40
  L 578.02 285.86
  A 0.99 0.99 0.0 0 0 577.17 285.38
  L 561.01 285.37
  Q 560.40 285.37 560.39 285.99
  L 560.32 290.52
  Q 560.31 291.02 560.81 291.05
  Z"
/>
<path fill="#ffffff" d="
  M 605.26 295.75
  L 605.25 300.98
  Q 605.25 301.45 605.72 301.45
  L 622.65 301.37
  Q 623.20 301.37 623.56 300.95
  L 624.33 300.04
  A 0.35 0.35 0.0 0 1 624.94 300.27
  L 624.93 307.29
  A 0.31 0.30 -69.6 0 1 624.43 307.52
  L 623.91 307.09
  Q 623.48 306.75 622.93 306.75
  L 596.15 306.73
  A 0.38 0.38 0.0 0 1 595.95 306.03
  L 596.63 305.63
  Q 596.98 305.41 596.98 305.00
  L 597.00 281.65
  A 0.86 0.85 13.7 0 0 596.52 280.87
  L 595.58 280.41
  A 0.36 0.36 0.0 0 1 595.74 279.73
  L 622.89 279.81
  Q 623.46 279.81 623.84 279.38
  L 624.34 278.80
  Q 624.92 278.13 624.92 279.02
  L 624.91 286.28
  A 0.20 0.20 0.0 0 1 624.55 286.39
  L 624.00 285.58
  A 1.06 1.04 72.4 0 0 623.11 285.11
  L 605.78 285.19
  Q 605.26 285.19 605.26 285.72
  L 605.25 289.70
  Q 605.24 290.16 605.70 290.17
  Q 613.48 290.32 616.25 290.18
  Q 617.27 290.13 618.08 289.10
  Q 618.52 288.55 618.52 289.26
  L 618.53 296.05
  A 0.36 0.36 0.0 0 1 617.88 296.25
  L 617.50 295.70
  Q 617.20 295.27 616.68 295.27
  L 605.75 295.26
  Q 605.26 295.26 605.26 295.75
  Z"
/>
<path fill="#ffffff" d="
  M 749.25 295.79
  L 749.25 300.85
  Q 749.25 301.46 749.85 301.46
  L 766.51 301.41
  Q 767.11 301.41 767.53 300.97
  L 768.37 300.07
  A 0.32 0.32 0.0 0 1 768.92 300.29
  L 768.94 307.29
  Q 768.94 307.94 768.43 307.53
  L 767.87 307.08
  Q 767.43 306.73 766.88 306.73
  L 739.74 306.74
  A 0.30 0.29 34.5 0 1 739.63 306.17
  C 741.71 305.41 741.09 303.72 741.10 301.97
  Q 741.17 291.83 741.10 281.69
  Q 741.10 281.19 740.65 280.97
  L 739.54 280.41
  A 0.35 0.35 0.0 0 1 739.70 279.75
  L 766.96 279.76
  Q 767.58 279.76 767.96 279.28
  L 768.38 278.75
  Q 768.90 278.10 768.90 278.93
  L 768.91 286.17
  A 0.25 0.25 0.0 0 1 768.46 286.31
  L 768.00 285.62
  A 1.01 1.01 0.0 0 0 767.16 285.17
  L 749.79 285.18
  Q 749.26 285.18 749.26 285.71
  L 749.25 289.60
  Q 749.25 290.21 749.85 290.21
  L 760.61 290.21
  Q 761.13 290.21 761.45 289.80
  L 762.04 289.06
  Q 762.51 288.46 762.52 289.23
  L 762.53 296.25
  A 0.31 0.30 -61.6 0 1 761.97 296.42
  Q 761.25 295.31 760.27 295.27
  Q 756.90 295.12 749.71 295.32
  Q 749.25 295.33 749.25 295.79
  Z"
/>
<path fill="#ffffff" d="
  M 718.76 287.61
  Q 718.58 288.01 718.24 287.74
  Q 713.51 284.10 707.10 285.10
  C 705.41 285.37 703.96 285.11 702.57 286.60
  Q 702.23 286.97 702.27 287.48
  C 702.74 292.33 721.85 287.29 722.10 298.08
  C 722.33 308.38 705.38 307.71 699.99 305.99
  Q 696.45 304.87 694.00 305.37
  Q 693.57 305.46 693.70 305.04
  L 695.91 297.76
  Q 696.15 296.96 696.49 297.72
  L 697.05 298.97
  Q 697.24 299.38 697.66 299.55
  C 700.34 300.59 713.11 303.66 714.15 299.63
  A 2.11 2.11 0.0 0 0 712.46 297.02
  Q 706.76 296.08 701.49 295.32
  C 695.60 294.46 691.74 288.70 696.19 283.69
  C 701.22 278.03 711.80 279.06 718.38 280.80
  C 719.57 281.12 720.29 281.01 721.35 280.58
  Q 722.07 280.28 721.75 281.00
  L 718.76 287.61
  Z"
/>
<path fill="#ffffff" d="
  M 87.00 288.87
  L 87.00 281.50
  A 0.68 0.68 0.0 0 0 86.44 280.83
  Q 85.87 280.71 85.45 280.33
  Q 84.79 279.74 85.67 279.74
  L 96.46 279.77
  Q 96.68 279.77 96.69 279.99
  Q 96.70 280.14 96.71 280.29
  Q 96.72 280.43 96.58 280.46
  Q 95.17 280.67 95.16 282.50
  Q 95.09 293.72 95.21 304.95
  A 1.04 1.04 0.0 0 0 95.69 305.81
  L 96.43 306.28
  Q 97.18 306.76 96.29 306.76
  L 86.00 306.71
  A 0.30 0.30 0.0 0 1 85.88 306.14
  L 86.50 305.87
  A 0.86 0.84 78.4 0 0 87.00 305.09
  L 87.00 296.02
  Q 87.00 295.54 86.52 295.54
  L 73.94 295.53
  A 0.54 0.53 -0.0 0 0 73.40 296.06
  L 73.38 304.90
  Q 73.38 305.35 73.77 305.58
  L 74.74 306.15
  Q 75.77 306.76 74.57 306.75
  L 64.06 306.70
  A 0.27 0.27 0.0 0 1 63.98 306.17
  Q 64.96 305.89 64.99 304.75
  Q 65.25 293.26 65.28 281.78
  Q 65.28 281.20 64.76 280.94
  L 63.62 280.37
  A 0.32 0.32 0.0 0 1 63.76 279.76
  L 74.52 279.75
  A 0.40 0.40 0.0 0 1 74.72 280.49
  L 73.81 281.02
  Q 73.42 281.25 73.42 281.71
  L 73.40 288.90
  A 0.51 0.51 0.0 0 0 73.90 289.42
  L 86.38 289.49
  A 0.62 0.62 0.0 0 0 87.00 288.87
  Z"
/>
<path fill="#ffffff" d="
  M 126.14 305.73
  L 127.25 306.40
  A 0.21 0.21 0.0 0 1 127.14 306.80
  Q 121.54 306.75 116.01 306.68
  Q 115.81 306.68 115.76 306.55
  Q 115.68 306.33 115.89 306.24
  L 116.96 305.76
  Q 117.49 305.53 117.49 304.95
  L 117.50 281.69
  A 0.96 0.95 10.8 0 0 116.89 280.80
  L 115.86 280.41
  A 0.35 0.35 0.0 0 1 115.98 279.74
  L 127.15 279.76
  A 0.39 0.39 0.0 0 1 127.29 280.52
  L 126.20 280.95
  A 0.92 0.91 -10.9 0 0 125.62 281.80
  L 125.64 304.84
  Q 125.64 305.43 126.14 305.73
  Z"
/>
<path fill="#ffffff" d="
  M 294.03 280.91
  L 293.54 280.36
  Q 293.00 279.75 293.82 279.75
  L 305.55 279.76
  Q 306.56 279.76 305.92 280.54
  L 305.63 280.88
  Q 305.30 281.28 305.52 281.75
  L 317.26 306.36
  Q 317.44 306.74 317.02 306.74
  L 308.98 306.72
  Q 308.50 306.72 308.46 306.24
  Q 308.26 303.79 306.95 301.67
  Q 306.70 301.25 306.21 301.25
  L 293.25 301.26
  Q 292.77 301.26 292.47 301.65
  Q 290.96 303.70 290.81 306.20
  Q 290.78 306.73 290.25 306.73
  L 283.57 306.72
  Q 282.93 306.72 283.19 306.13
  L 294.16 281.69
  Q 294.35 281.26 294.03 280.91
  Z
  M 294.65 296.42
  A 0.34 0.34 0.0 0 0 294.96 296.90
  L 304.17 296.89
  A 0.34 0.34 0.0 0 0 304.48 296.40
  L 299.86 286.78
  A 0.34 0.34 0.0 0 0 299.24 286.78
  L 294.65 296.42
  Z"
/>
<path fill="#ffffff" d="
  M 345.87 281.33
  L 345.91 305.43
  A 0.26 0.26 0.0 0 0 346.06 305.66
  L 347.33 306.26
  A 0.26 0.26 0.0 0 1 347.22 306.76
  L 336.45 306.72
  A 0.26 0.26 0.0 0 1 336.31 306.24
  L 337.52 305.52
  A 0.26 0.26 0.0 0 0 337.65 305.29
  L 337.67 281.25
  A 0.26 0.26 0.0 0 0 337.50 281.01
  L 335.41 280.26
  A 0.26 0.26 0.0 0 1 335.50 279.76
  L 347.87 279.75
  A 0.26 0.26 0.0 0 1 347.98 280.25
  L 346.03 281.09
  A 0.26 0.26 0.0 0 0 345.87 281.33
  Z"
/>
<path fill="#ffffff" d="
  M 390.75 292.80
  L 390.76 281.55
  A 0.75 0.74 11.2 0 0 390.29 280.86
  L 389.33 280.48
  A 0.38 0.37 -33.7 0 1 389.48 279.76
  L 399.52 279.76
  A 0.37 0.37 0.0 0 1 399.67 280.47
  L 398.61 280.93
  A 0.83 0.83 0.0 0 0 398.12 281.69
  Q 398.12 292.62 398.13 303.51
  Q 398.14 305.72 399.46 306.38
  Q 400.20 306.75 399.38 306.75
  L 389.75 306.73
  Q 388.82 306.73 389.53 306.13
  Q 390.83 305.04 389.54 303.72
  Q 382.68 296.62 376.06 289.26
  A 0.33 0.33 0.0 0 0 375.49 289.48
  L 375.48 304.67
  Q 375.47 305.18 375.85 305.54
  L 376.52 306.18
  Q 377.10 306.75 376.29 306.75
  L 367.24 306.73
  Q 366.68 306.73 367.08 306.33
  L 367.60 305.84
  Q 368.00 305.45 368.00 304.90
  L 368.00 281.55
  A 0.70 0.69 15.0 0 0 367.65 280.95
  L 366.80 280.47
  A 0.39 0.38 -30.3 0 1 366.99 279.75
  L 380.51 279.76
  A 0.42 0.42 0.0 0 1 380.75 280.53
  L 379.90 281.10
  Q 379.38 281.45 379.81 281.91
  L 390.13 293.04
  Q 390.75 293.71 390.75 292.80
  Z"
/>
<path fill="#ffffff" d="
  M 652.25 289.33
  L 652.26 305.00
  A 0.92 0.92 0.0 0 0 652.74 305.81
  L 653.45 306.19
  Q 654.47 306.74 653.32 306.74
  L 644.33 306.72
  A 0.32 0.32 0.0 0 1 644.10 306.18
  L 644.60 305.68
  Q 644.96 305.32 644.96 304.81
  L 644.90 281.69
  Q 644.90 281.17 644.45 280.91
  L 643.58 280.40
  Q 642.45 279.75 643.75 279.75
  L 657.64 279.76
  A 0.27 0.27 0.0 0 1 657.81 280.23
  Q 656.26 281.52 656.71 282.01
  Q 661.99 287.69 667.32 293.37
  A 0.20 0.20 0.0 0 0 667.67 293.23
  L 667.72 281.72
  A 0.90 0.90 0.0 0 0 667.23 280.92
  L 666.30 280.46
  A 0.36 0.36 0.0 0 1 666.46 279.77
  L 676.29 279.74
  A 0.40 0.40 0.0 0 1 676.45 280.50
  L 675.59 280.87
  A 0.97 0.97 0.0 0 0 675.00 281.76
  L 675.00 304.91
  Q 675.00 305.57 675.56 305.92
  L 676.29 306.37
  Q 676.85 306.72 676.19 306.73
  L 665.95 306.74
  Q 664.85 306.74 665.84 306.28
  L 666.54 305.95
  A 1.02 1.02 0.0 0 0 666.86 304.33
  L 652.73 289.14
  A 0.28 0.28 0.0 0 0 652.25 289.33
  Z"
/>
</svg>
